<svg width="5" height="110" viewBox="0 0 5 110" fill="none" xmlns="http://www.w3.org/2000/svg">
<g clip-path="url(#clip0_1053_67608)">
<path opacity="0.043137" d="M5 0H0V5H5V0Z" fill="#E6E6E6"/>
<path opacity="0.090196" d="M5 5H0V10H5V5Z" fill="#E6E6E6"/>
<path opacity="0.133333" d="M5 10H0V15H5V10Z" fill="#E6E6E6"/>
<path opacity="0.180392" d="M5 15H0V20H5V15Z" fill="#E6E6E6"/>
<path opacity="0.223529" d="M5 20H0V25H5V20Z" fill="#E6E6E6"/>
<path opacity="0.270588" d="M5 25H0V30H5V25Z" fill="#E6E6E6"/>
<path opacity="0.317647" d="M5 30H0V35H5V30Z" fill="#E6E6E6"/>
<path opacity="0.360784" d="M5 35H0V40H5V35Z" fill="#E6E6E6"/>
<path opacity="0.407843" d="M5 40H0V45H5V40Z" fill="#E6E6E6"/>
<path opacity="0.45098" d="M5 45H0V50H5V45Z" fill="#E6E6E6"/>
<path opacity="0.498039" d="M5 50H0V55H5V50Z" fill="#E6E6E6"/>
<path opacity="0.545098" d="M5 55H0V60H5V55Z" fill="#E6E6E6"/>
<path opacity="0.588235" d="M5 60H0V65H5V60Z" fill="#E6E6E6"/>
<path opacity="0.635294" d="M5 65H0V70H5V65Z" fill="#E6E6E6"/>
<path opacity="0.678431" d="M5 70H0V75H5V70Z" fill="#E6E6E6"/>
<path opacity="0.72549" d="M5 75H0V80H5V75Z" fill="#E6E6E6"/>
<path opacity="0.772549" d="M5 80H0V85H5V80Z" fill="#E6E6E6"/>
<path opacity="0.815686" d="M5 85H0V90H5V85Z" fill="#E6E6E6"/>
<path opacity="0.862745" d="M5 90H0V95H5V90Z" fill="#E6E6E6"/>
<path opacity="0.905882" d="M5 95H0V100H5V95Z" fill="#E6E6E6"/>
<path opacity="0.952941" d="M5 100H0V105H5V100Z" fill="#E6E6E6"/>
<path d="M5 105H0V110H5V105Z" fill="#E6E6E6"/>
</g>
<defs>
<clipPath id="clip0_1053_67608">
<rect width="5" height="110" fill="white"/>
</clipPath>
</defs>
</svg>
