<svg width="25" height="160" viewBox="0 0 25 160" fill="none" xmlns="http://www.w3.org/2000/svg">
<g clip-path="url(#clip0_836_32900)">
<path d="M0 2.5H22.5V140H0V2.5Z" fill="white"/>
<path d="M0 140H22.5V157.5H0V140Z" fill="#999999"/>
<path d="M0 0H20V2.5H0V0Z" fill="black"/>
<path d="M20 2.5H22.5V5H20V2.5Z" fill="black"/>
<path d="M0 5H20V140H0V5Z" fill="#E6E6E6"/>
<path d="M0 27.5H5V140H0V27.5Z" fill="white"/>
<path d="M0 30H2.5V40H0V30Z" fill="#999999"/>
<path d="M0 40H2.5V152.5H0V40Z" fill="black"/>
<path d="M5 140H20V142.5H5V140Z" fill="#E6E6E6"/>
<path d="M7.5 142.5H17.5V145H7.5V142.5Z" fill="#E6E6E6"/>
<path d="M20 155H22.5V157.5H20V155Z" fill="black"/>
<path d="M0 157.5H20V160H0V157.5Z" fill="black"/>
<path d="M22.5 5H25V155H22.5V5Z" fill="black"/>
</g>
<defs>
<clipPath id="clip0_836_32900">
<rect width="25" height="160" fill="white" transform="matrix(-1 0 0 1 25 0)"/>
</clipPath>
</defs>
</svg>
