<svg width="25" height="160" viewBox="0 0 25 160" fill="none" xmlns="http://www.w3.org/2000/svg">
<g clip-path="url(#clip0_836_32900)">
<path d="M25 2.5H2.5V140H25V2.5Z" fill="white"/>
<path d="M25 140H2.5V157.5H25V140Z" fill="#999999"/>
<path d="M25 0H5V2.5H25V0Z" fill="black"/>
<path d="M5 2.5H2.5V5H5V2.5Z" fill="black"/>
<path d="M25 5H5V140H25V5Z" fill="#E6E6E6"/>
<path d="M25 27.5H20V140H25V27.5Z" fill="white"/>
<path d="M25 30H22.5V40H25V30Z" fill="#999999"/>
<path d="M25 40H22.5V152.5H25V40Z" fill="black"/>
<path d="M20 140H5V142.5H20V140Z" fill="#E6E6E6"/>
<path d="M17.5 142.5H7.5V145H17.5V142.5Z" fill="#E6E6E6"/>
<path d="M5 155H2.5V157.5H5V155Z" fill="black"/>
<path d="M25 157.5H5V160H25V157.5Z" fill="black"/>
<path d="M2.5 5H0V155H2.5V5Z" fill="black"/>
</g>
<defs>
<clipPath id="clip0_836_32900">
<rect width="25" height="160" fill="white"/>
</clipPath>
</defs>
</svg>
